<svg xmlns="http://www.w3.org/2000/svg" x="0px" y="0px"
width="200" height="200"
viewBox="0 0 172 172"
style=" fill:#000000;"><g fill="none" fill-rule="nonzero" stroke="none" stroke-width="1" stroke-linecap="butt" stroke-linejoin="miter" stroke-miterlimit="10" stroke-dasharray="" stroke-dashoffset="0" font-family="none" font-weight="none" font-size="none" text-anchor="none" style="mix-blend-mode: normal"><path d="M0,172v-172h172v172z" fill="#3f6870"></path><g><path d="M150.5,21.5l-9.46,68.08333h-110.08l-9.46,-68.08333z" fill="#90caf9"></path><path d="M135.05583,132.58333l-2.4725,17.91667h-93.16667l-2.4725,-17.91667z" fill="#42a5f5"></path><path d="M141.04,89.58333l-5.98417,43h-98.11167l-5.98417,-43z" fill="#ff6f00"></path><rect x="24" y="21" transform="scale(3.58333,3.58333)" width="8" height="4" fill="#fff8e1"></rect><rect x="24" y="25" transform="scale(3.58333,3.58333)" width="8" height="4" fill="#ffa000"></rect><path d="M50.16667,89.58333h-10.75l-7.16667,-57.33333h10.75z" fill="#fafafa"></path><path d="M105.42167,85.785l-2.93833,3.79833h-16.48333v-14.33333h5.84083z" fill="#ffecb3"></path><path d="M102.48333,89.58333l-11.10833,14.33333h-5.375v-14.33333z" fill="#ff8f00"></path><path d="M95.3525,87.03917l-1.97083,2.54417h-36.26333l15.5875,-20.1025z" fill="#fff8e1"></path><path d="M93.38167,89.58333l-15.5875,20.1025l-22.64667,-17.55833l1.97083,-2.54417z" fill="#ffa000"></path><path d="M53.75,118.25h-10.75l-3.58333,-28.66667h10.75z" fill="#ffe082"></path></g><path d="M0,172v-172h172v172z" fill="none"></path><path d="M3.44,168.56v-165.12h165.12v165.12z" fill="none"></path><path d="M86,172c-47.49649,0 -86,-38.50351 -86,-86v0c0,-47.49649 38.50351,-86 86,-86v0c47.49649,0 86,38.50351 86,86v0c0,47.49649 -38.50351,86 -86,86z" fill="none"></path><path d="M86,168.56c-45.59663,0 -82.56,-36.96337 -82.56,-82.56v0c0,-45.59663 36.96337,-82.56 82.56,-82.56v0c45.59663,0 82.56,36.96337 82.56,82.56v0c0,45.59663 -36.96337,82.56 -82.56,82.56z" fill="none"></path><path d="M86,172c-47.49649,0 -86,-38.50351 -86,-86v0c0,-47.49649 38.50351,-86 86,-86v0c47.49649,0 86,38.50351 86,86v0c0,47.49649 -38.50351,86 -86,86z" fill="none"></path><path d="M86,168.56c-45.59663,0 -82.56,-36.96337 -82.56,-82.56v0c0,-45.59663 36.96337,-82.56 82.56,-82.56v0c45.59663,0 82.56,36.96337 82.56,82.56v0c0,45.59663 -36.96337,82.56 -82.56,82.56z" fill="none"></path><g fill="#f1c40f"><path d="M103.91,149.945l-3.1,14.64c0.87333,0.24667 1.66,0.52333 2.36,0.83c0.7,0.31333 1.34,0.63333 1.92,0.96v0l-0.43,2.36h-19.1l0.44,-2.36c1.03333,-0.49333 1.99333,-0.87333 2.88,-1.14c0.88667,-0.27333 1.76333,-0.49 2.63,-0.65v0l7.44,-35.1c-2.02,-0.45333 -3.59,-1.05 -4.71,-1.79v0l0.5,-2.36h6.57c0.82667,0 1.76667,-0.02 2.82,-0.06c1.05333,-0.04 2.16,-0.09333 3.32,-0.16c1.15333,-0.06 2.33,-0.12 3.53,-0.18c1.2,-0.06667 2.33667,-0.1 3.41,-0.1v0c4.58667,0 7.98667,0.89 10.2,2.67c2.21333,1.78 3.32,4.3 3.32,7.56v0c0,1.53333 -0.25,3.01333 -0.75,4.44c-0.49333,1.42667 -1.22667,2.74667 -2.2,3.96c-0.96667,1.22 -2.16333,2.29667 -3.59,3.23c-1.42667,0.92667 -3.09,1.66 -4.99,2.2v0c1.07333,2.60667 2.40667,5.25333 4,7.94c1.58667,2.68667 3.14667,5.29 4.68,7.81v0l2.6,1.98l-0.43,2.11h-9.86l-2.3,-2.05c-1.4,-2.27333 -2.69,-4.90667 -3.87,-7.9c-1.18,-3 -2.03667,-5.94667 -2.57,-8.84v0zM111.54,128.865v0c-0.66,0 -1.26,0.04333 -1.8,0.13c-0.53333,0.08 -1.03,0.16333 -1.49,0.25v0l-3.65,17.29h3.59c1.69333,0 3.17,-0.32 4.43,-0.96c1.26667,-0.64 2.31333,-1.50667 3.14,-2.6c0.82667,-1.09333 1.44667,-2.34333 1.86,-3.75c0.41333,-1.40667 0.62,-2.89667 0.62,-4.47v0c0.04,-2.10667 -0.48667,-3.61333 -1.58,-4.52c-1.1,-0.91333 -2.80667,-1.37 -5.12,-1.37zM135.84,168.795h-7.37l0.43,-2.35c0.90667,-0.46 1.83667,-0.85333 2.79,-1.18c0.95333,-0.33333 1.86333,-0.54 2.73,-0.62v0l7.44,-35.09c-0.82667,-0.16667 -1.65333,-0.40667 -2.48,-0.72c-0.82667,-0.30667 -1.57,-0.66667 -2.23,-1.08v0l0.49,-2.36h9.86c1.57333,0 3.09333,-0.06 4.56,-0.18c1.46667,-0.12667 3.11,-0.19 4.93,-0.19v0c1.98,0 3.79667,0.15667 5.45,0.47c1.65333,0.30667 3.07,0.78 4.25,1.42c1.18,0.64 2.1,1.48667 2.76,2.54c0.66,1.05333 0.99,2.32667 0.99,3.82v0c0,1.73333 -0.3,3.28333 -0.9,4.65c-0.6,1.36 -1.42667,2.55667 -2.48,3.59c-1.05333,1.03333 -2.30333,1.88 -3.75,2.54c-1.44667,0.66667 -3.01667,1.16333 -4.71,1.49v0v0.25c1.11333,0.08 2.23,0.28667 3.35,0.62c1.11333,0.33333 2.11333,0.83 3,1.49c0.89333,0.66 1.61667,1.49667 2.17,2.51c0.56,1.01333 0.84,2.22333 0.84,3.63v0c0,2.22667 -0.44333,4.26 -1.33,6.1c-0.89333,1.84 -2.20667,3.43333 -3.94,4.78c-1.73333,1.34 -3.90333,2.38333 -6.51,3.13c-2.60667,0.74 -5.62333,1.11 -9.05,1.11v0c-0.86667,0 -1.80667,-0.02 -2.82,-0.06c-1.01333,-0.04 -2.03667,-0.08 -3.07,-0.12c-1.03333,-0.04 -2.02667,-0.08333 -2.98,-0.13c-0.94667,-0.04 -1.75333,-0.06 -2.42,-0.06zM147.93,165.135v0c1.53333,0 2.94,-0.26667 4.22,-0.8c1.28,-0.54 2.37667,-1.29333 3.29,-2.26c0.90667,-0.97333 1.61667,-2.11333 2.13,-3.42c0.52,-1.3 0.78,-2.71333 0.78,-4.24v0c0,-2.27333 -0.73333,-3.78333 -2.2,-4.53c-1.46667,-0.74 -3.52333,-1.11 -6.17,-1.11v0h-3.29l-3.34,15.93c0.53333,0.12667 1.11,0.23 1.73,0.31c0.62,0.08 1.57,0.12 2.85,0.12zM147.56,144.745h1.99c0.7,0 1.41,-0.03333 2.13,-0.1c0.72667,-0.06 1.4,-0.13 2.02,-0.21v0c2.48,-0.95333 4.34,-2.32 5.58,-4.1c1.24,-1.77333 1.86,-3.84 1.86,-6.2v0c0,-1.60667 -0.47667,-2.85667 -1.43,-3.75c-0.94667,-0.88667 -2.49667,-1.33 -4.65,-1.33v0c-0.86667,0 -1.64,0.02 -2.32,0.06c-0.68,0.04 -1.31,0.10333 -1.89,0.19v0z"></path></g></g></svg>