<svg id="a8119366-fbb1-43d5-bc51-309fe3f9d973" data-name="Layer 1" xmlns="http://www.w3.org/2000/svg" viewBox="0 0 40.75 25.74"><title>icon</title><polygon points="27.6 13.96 29.17 13.96 28.59 11.18 27.6 13.96"/><path d="M35.39,0h-30A5.36,5.36,0,0,0,0,5.36v15a5.36,5.36,0,0,0,5.36,5.37h30a5.36,5.36,0,0,0,5.36-5.37v-15A5.36,5.36,0,0,0,35.39,0ZM11.82,16.57l-1.51-5.89A.79.79,0,0,0,9.86,10,7.73,7.73,0,0,0,8,9.4l0-.22h3.23a.88.88,0,0,1,.87.76l.8,4.27,2-5h2l-3.07,7.39Zm4.33,0,1.57-7.39h1.89L18,16.57Zm5.31.12a5.83,5.83,0,0,1-2.11-.39l.34-1.62a4,4,0,0,0,1.95.46c.55,0,1.13-.22,1.13-.72,0-.32-.24-.56-1-.92s-1.67-.95-1.66-2c0-1.44,1.33-2.44,3.21-2.44a5,5,0,0,1,1.77.33l-.33,1.56a3.66,3.66,0,0,0-1.87-.33c-.55.07-.8.36-.81.62,0,.87,2.67,1,2.66,2.93C24.75,15.7,23.45,16.69,21.46,16.69Zm8.25-.12-.23-1.1H27.05l-.4,1.1h-2l2.85-6.85a.88.88,0,0,1,.81-.54h1.62l1.53,7.39Z"/></svg>