<svg id="b12b19f4-c3e0-4753-879d-b5c7199aaddc" data-name="Layer 1" xmlns="http://www.w3.org/2000/svg" viewBox="0 0 40.75 25.74"><title>icon</title><polygon points="26.83 11.41 23.82 11.41 23.82 12.26 26.83 12.26 26.83 13.48 23.82 13.48 23.82 14.32 26.83 14.32 26.83 15.02 28.88 12.84 26.83 10.6 26.83 11.41"/><polygon points="10.09 13.13 11.57 13.13 10.81 11.36 10.09 13.13"/><path d="M35.39,0h-30A5.36,5.36,0,0,0,0,5.36v15a5.36,5.36,0,0,0,5.36,5.37h30a5.36,5.36,0,0,0,5.36-5.37v-15A5.36,5.36,0,0,0,35.39,0Zm-14,15.54H20V12l-1.64,3.54h-1.3l-1.79-3.86v3.86H12.61l-.51-1.18H9.59L9.1,15.54H7.51l2.34-5.35h2l2,4.53V10.19h2.23l1.6,3.42,1.61-3.42H21.4Zm11.84,0H31.36l-1.55-1.68-1.58,1.68h-5.8V10.19h5.91l1.49,1.63,1.53-1.63h1.88l-2.48,2.65Z"/></svg>