<svg id="fcc3f0f7-7791-4f82-bc47-5e242422efaa" data-name="Layer 1" xmlns="http://www.w3.org/2000/svg" viewBox="0 0 40.75 25.74"><title>icon</title><path d="M29.62,12.74a1.14,1.14,0,0,0-.87.35,1.22,1.22,0,0,0-.35.87.78.78,0,0,0,.26.62,1,1,0,0,0,.65.22,1.15,1.15,0,0,0,.86-.35h0a1.13,1.13,0,0,0,.32-.87.78.78,0,0,0-.26-.62A.92.92,0,0,0,29.62,12.74Z"/><path d="M13.83,12.74a1.14,1.14,0,0,0-.87.35,1.22,1.22,0,0,0-.35.87.81.81,0,0,0,.25.62.92.92,0,0,0,.61.22,1.25,1.25,0,0,0,.88-.34h0a1.09,1.09,0,0,0,.35-.87.81.81,0,0,0-.25-.62A1,1,0,0,0,13.83,12.74Z"/><path d="M25.48,11.06a.61.61,0,0,0-.34-.17,2,2,0,0,0-.49,0h-.27a.16.16,0,0,0-.18.15L24,12.53h.45a1.64,1.64,0,0,0,.92-.21.89.89,0,0,0,.32-.83A.54.54,0,0,0,25.48,11.06Z"/><path d="M35.39,0h-30A5.36,5.36,0,0,0,0,5.36v15a5.36,5.36,0,0,0,5.36,5.37h30a5.36,5.36,0,0,0,5.36-5.37v-15A5.36,5.36,0,0,0,35.39,0ZM8.9,13.76H8.2a.43.43,0,0,0-.21.09A.24.24,0,0,0,7.9,14l-.26,1.53v0a.28.28,0,0,1-.31.24h-1a.19.19,0,0,1-.14-.07.18.18,0,0,1,0-.16L7,9.92v0a.27.27,0,0,1,.29-.24H9.54a2.33,2.33,0,0,1,1.4.37,1.34,1.34,0,0,1,.5,1.2,2.5,2.5,0,0,1-.68,1.85A2.54,2.54,0,0,1,8.9,13.76Zm6.87,1.81v0a.26.26,0,0,1-.3.24h-1c-.12,0-.18-.07-.18-.22a.93.93,0,0,1,.05-.29,1.77,1.77,0,0,1-.66.45,2.29,2.29,0,0,1-.81.16,1.72,1.72,0,0,1-1.29-.49,1.75,1.75,0,0,1-.48-1.31,2.49,2.49,0,0,1,.7-1.77,2.26,2.26,0,0,1,1.71-.75,1.44,1.44,0,0,1,1.32.56c0-.31.1-.46.24-.46h1.05a.15.15,0,0,1,.14.07.17.17,0,0,1,0,.15Zm2.39,1.69H17.05a.16.16,0,0,1-.14-.18,13.39,13.39,0,0,1,1.15-1.67l-.33-1-.59-1.72c-.18-.53-.27-.82-.27-.82a.18.18,0,0,1,.06-.13.14.14,0,0,1,.12-.06h1a.29.29,0,0,1,.31.22L19,14l1.48-2.17a.29.29,0,0,1,.25-.14h1.07a.16.16,0,0,1,.13.06.21.21,0,0,1,.05.13A.14.14,0,0,1,22,12l-3.55,5.13A.3.3,0,0,1,18.16,17.26Zm6.59-3.5h-.7a.4.4,0,0,0-.21.09.27.27,0,0,0-.1.18l-.25,1.62a.24.24,0,0,1-.23.18H22.12a.17.17,0,0,1-.14-.07.18.18,0,0,1-.05-.16l.91-5.68v0a.27.27,0,0,1,.31-.23h2.21a2.33,2.33,0,0,1,1.4.37,1.33,1.33,0,0,1,.52,1.2,2.5,2.5,0,0,1-.68,1.86A2.57,2.57,0,0,1,24.75,13.76Zm6.91,1.81v0a.28.28,0,0,1-.31.24h-1c-.12,0-.18-.07-.18-.22a.48.48,0,0,1,0-.17v-.12a1.69,1.69,0,0,1-.66.45,2.3,2.3,0,0,1-.82.16,1.69,1.69,0,0,1-1.28-.49A1.76,1.76,0,0,1,27,14.13a2.55,2.55,0,0,1,.71-1.77,2.24,2.24,0,0,1,1.7-.75,1.45,1.45,0,0,1,1.33.56c0-.31.1-.46.23-.46H32a.16.16,0,0,1,.19.07.17.17,0,0,1,0,.15Zm2.09,0v0a.26.26,0,0,1-.29.24h-.92a.18.18,0,0,1-.14-.06.2.2,0,0,1-.06-.13l.91-5.79h0a.16.16,0,0,1,.18-.15h1a.18.18,0,0,1,.2.18Z"/><path d="M8.83,10.86H8.56a.17.17,0,0,0-.18.16l-.23,1.49h.46a1.84,1.84,0,0,0,.83-.16.77.77,0,0,0,.37-.62A.79.79,0,0,0,9.64,11,1.61,1.61,0,0,0,8.83,10.86Z"/></svg>