<svg id="a6529798-bc4d-4133-9e46-bd8120af716a" data-name="Layer 1" xmlns="http://www.w3.org/2000/svg" viewBox="0 0 14.8 12.03"><title>icon</title><path d="M14.8,1.42a5.69,5.69,0,0,1-1.74.48A3,3,0,0,0,14.39.22,6,6,0,0,1,12.47,1,3,3,0,0,0,7.21,3a3.17,3.17,0,0,0,.08.69A8.67,8.67,0,0,1,1,.56,3,3,0,0,0,.62,2.08,3,3,0,0,0,2,4.61,3.06,3.06,0,0,1,.59,4.23v0A3,3,0,0,0,3,7.25a3,3,0,0,1-.8.1,3.45,3.45,0,0,1-.57,0A3,3,0,0,0,4.5,9.41a6.13,6.13,0,0,1-3.78,1.3c-.24,0-.48,0-.72,0A8.6,8.6,0,0,0,4.66,12,8.59,8.59,0,0,0,13.3,3.39c0-.13,0-.26,0-.39A6.13,6.13,0,0,0,14.8,1.42Z"/></svg>