<svg id="abdd55b1-e792-4c03-9941-9d5c2c8243e0" data-name="Layer 1" xmlns="http://www.w3.org/2000/svg" viewBox="0 0 34.35 34.35"><title>icon</title><path d="M25.87,13.17a2.29,2.29,0,0,0-1.6-1.62,54.29,54.29,0,0,0-7.1-.38,54.16,54.16,0,0,0-7.09.38,2.28,2.28,0,0,0-1.6,1.62,23.94,23.94,0,0,0-.38,4.4A23.94,23.94,0,0,0,8.48,22a2.26,2.26,0,0,0,1.6,1.61,52.78,52.78,0,0,0,7.09.39,52.92,52.92,0,0,0,7.1-.39A2.28,2.28,0,0,0,25.87,22a23.94,23.94,0,0,0,.38-4.4A23.94,23.94,0,0,0,25.87,13.17Zm-10.55,7.1v-5.4l4.74,2.7Z"/><path d="M17.17,34.35A17.18,17.18,0,1,1,34.35,17.17,17.19,17.19,0,0,1,17.17,34.35ZM17.17,1A16.18,16.18,0,1,0,33.35,17.17,16.2,16.2,0,0,0,17.17,1Z"/></svg>