<svg id="bd164668-b0e8-4910-bba8-c2f6b81330a5" data-name="Layer 1" xmlns="http://www.w3.org/2000/svg" viewBox="0 0 34.35 34.35"><title>icon</title><path d="M17.17,10.73c-1.85,0-2.09,0-2.82,0a5.12,5.12,0,0,0-1.65.32,3.46,3.46,0,0,0-1.22.79,3.26,3.26,0,0,0-.78,1.21,4.92,4.92,0,0,0-.32,1.66c0,.73,0,1,0,2.82s0,2.09,0,2.82a4.92,4.92,0,0,0,.32,1.66,3.26,3.26,0,0,0,.78,1.21,3.46,3.46,0,0,0,1.22.79,5.12,5.12,0,0,0,1.65.32c.73,0,1,0,2.82,0s2.09,0,2.82,0a5.13,5.13,0,0,0,1.66-.32,3.42,3.42,0,0,0,1.21-.79,3.29,3.29,0,0,0,.79-1.21A4.92,4.92,0,0,0,24,20.39c0-.73,0-1,0-2.82s0-2.09,0-2.82a4.92,4.92,0,0,0-.32-1.66,3.29,3.29,0,0,0-.79-1.21,3.42,3.42,0,0,0-1.21-.79A5.13,5.13,0,0,0,20,10.77c-.73,0-1,0-2.82,0Zm0,1.23c1.83,0,2,0,2.77,0a3.87,3.87,0,0,1,1.27.24,2,2,0,0,1,.78.51,2.07,2.07,0,0,1,.51.79,3.57,3.57,0,0,1,.24,1.27c0,.72,0,.93,0,2.76s0,2,0,2.76a3.57,3.57,0,0,1-.24,1.27,2.07,2.07,0,0,1-.51.79,2,2,0,0,1-.78.51,3.87,3.87,0,0,1-1.27.24c-.72,0-.94,0-2.77,0s-2,0-2.76,0a3.81,3.81,0,0,1-1.27-.24,2,2,0,0,1-.78-.51,2.22,2.22,0,0,1-.52-.79,3.89,3.89,0,0,1-.23-1.27c0-.72,0-.93,0-2.76s0-2,0-2.76a3.89,3.89,0,0,1,.23-1.27,2.22,2.22,0,0,1,.52-.79,2,2,0,0,1,.78-.51A3.81,3.81,0,0,1,14.41,12c.72,0,.94,0,2.76,0"/><path d="M17.17,19.85a2.28,2.28,0,1,1,2.28-2.28,2.29,2.29,0,0,1-2.28,2.28Zm0-5.79a3.51,3.51,0,1,0,3.52,3.51,3.51,3.51,0,0,0-3.52-3.51Z"/><path d="M21.64,13.92a.82.82,0,1,1-.82-.82.82.82,0,0,1,.82.82Z"/><path d="M17.17,34.35A17.18,17.18,0,1,1,34.35,17.17,17.19,17.19,0,0,1,17.17,34.35ZM17.17,1A16.18,16.18,0,1,0,33.35,17.17,16.2,16.2,0,0,0,17.17,1Z"/></svg>