<svg id="acf9ca53-d7b8-44e0-8473-befb9db1f17b" data-name="Layer 1" xmlns="http://www.w3.org/2000/svg" viewBox="0 0 57.24 69.26"><title>icon</title><path d="M57,15.51a3.44,3.44,0,0,0-1.8-2.66L30.08.37A3.3,3.3,0,0,0,28.64,0a4.15,4.15,0,0,0-1.57.38l-25,12.47A3.22,3.22,0,0,0,.24,15.51a79.11,79.11,0,0,0,1.6,23c3.7,16.3,12.64,26.9,25.85,30.67a3.32,3.32,0,0,0,1.92,0c13.16-3.77,22.08-14.31,25.8-30.47l0-.1a80.78,80.78,0,0,0,1.62-22.7C57,15.69,57,15.57,57,15.51ZM27.19,66.27l-1.07-.39C-1,56.06,2.74,16.23,2.78,15.83l0-.44.07,0L27.19,3.21Zm3.87-.39L30,66.27V3.21l.18.09L54.36,15.39l0,.44C54.44,16.23,58.11,56.08,31.06,65.88Z"/></svg>