<svg id="be3ac325-34c8-4095-b4ba-36431e61e07c" data-name="Layer 1" xmlns="http://www.w3.org/2000/svg" viewBox="0 0 71.26 72.76"><title>icon</title><path d="M71.12,43.14l-7.38-14.4a.94.94,0,0,1-.14-.19l-.05-.07h-.08l-.07-.08-.06,0a.37.37,0,0,1-.15-.14L34.7,13.88,27.72.56a1,1,0,0,0-.63-.51,1,1,0,0,0-.3,0,1,1,0,0,0-.51.13L.58,14.29a1.25,1.25,0,0,0-.52,1.47l5.84,14V57.19a1,1,0,0,0,.58,1L34.72,72.61a1.17,1.17,0,0,0,.54.15,1.59,1.59,0,0,0,.53-.15L63.18,58.36a1.2,1.2,0,0,0,.61-1V48.15l6.8-3.49A1.13,1.13,0,0,0,71.2,44,1.08,1.08,0,0,0,71.12,43.14ZM2.55,15.72l23.67-13,6.13,11.71.37.73L7.56,27.64ZM33.29,69.35,8.17,56.42V31.15l25.12,13Zm1.51-27-.12-.06L9.44,29.24,35,16.5,60.33,29.24l-.43.23ZM61.51,56.74,35.56,70.19V47.51l5.93,10.86a1.22,1.22,0,0,0,1,.61h.09a1.14,1.14,0,0,0,.24,0l.15,0,18.55-9.51Zm.88-10.31a.74.74,0,0,1-.22.08l-19.24,9.9L36.3,44.22l26-13.46,6.33,12.47Z"/></svg>