<svg id="b79f4875-111f-456e-b32c-f7f3807fa666" data-name="Layer 1" xmlns="http://www.w3.org/2000/svg" viewBox="0 0 34.35 34.35"><title>icon</title><path d="M25.59,12.35a6.68,6.68,0,0,1-2,.54A3.39,3.39,0,0,0,25.12,11a6.6,6.6,0,0,1-2.19.84,3.45,3.45,0,0,0-6,2.36,3.42,3.42,0,0,0,.09.79,9.79,9.79,0,0,1-7.12-3.61A3.45,3.45,0,0,0,11,16a3.4,3.4,0,0,1-1.56-.43v0A3.46,3.46,0,0,0,12.21,19a3.53,3.53,0,0,1-1.56.06,3.46,3.46,0,0,0,3.22,2.4A7,7,0,0,1,9.58,22.9a7.5,7.5,0,0,1-.82,0,9.82,9.82,0,0,0,15.12-8.28c0-.15,0-.29,0-.44A7.14,7.14,0,0,0,25.59,12.35Z"/><path d="M17.17,34.35A17.18,17.18,0,1,1,34.35,17.17,17.19,17.19,0,0,1,17.17,34.35ZM17.17,1A16.18,16.18,0,1,0,33.35,17.17,16.2,16.2,0,0,0,17.17,1Z"/></svg>