<svg id="ef1b1791-912c-4669-b88d-889504c1d8af" data-name="Layer 1" xmlns="http://www.w3.org/2000/svg" viewBox="0 0 40.75 25.74"><title>icon</title><path d="M35.69,11.89a.58.58,0,0,0-.08-.32.53.53,0,0,0-.23-.19.94.94,0,0,0-.31-.08l-.32,0H34v1.24h.65l.36,0a1.14,1.14,0,0,0,.33-.07.65.65,0,0,0,.24-.19A.61.61,0,0,0,35.69,11.89Z"/><path d="M6.88,11.68a1.62,1.62,0,0,0-.56-.27,2.53,2.53,0,0,0-.7-.09H4.86v3.09h.62a3.5,3.5,0,0,0,.74-.08,1.66,1.66,0,0,0,.6-.28,1.24,1.24,0,0,0,.41-.47,1.55,1.55,0,0,0,.15-.71,1.7,1.7,0,0,0-.13-.71A1.19,1.19,0,0,0,6.88,11.68Z"/><path d="M35.39,0h-30A5.36,5.36,0,0,0,0,5.36v15a5.36,5.36,0,0,0,5.36,5.37h30a5.36,5.36,0,0,0,5.36-5.37v-15A5.36,5.36,0,0,0,35.39,0ZM8,13.88a2.29,2.29,0,0,1-.59.71,2.46,2.46,0,0,1-.8.42,3,3,0,0,1-.87.14H4V10.59H5.87a2.63,2.63,0,0,1,.89.14,2.07,2.07,0,0,1,1.3,1.13,2.4,2.4,0,0,1,.19,1A2.12,2.12,0,0,1,8,13.88Zm1.83,1.27H9V10.59h.83Zm3.82-.7a1.36,1.36,0,0,1-.37.45,1.66,1.66,0,0,1-.55.27,2.37,2.37,0,0,1-.65.09,2.41,2.41,0,0,1-.85-.14,1.55,1.55,0,0,1-.69-.48l.63-.59a1,1,0,0,0,.4.35,1.07,1.07,0,0,0,.53.13,1,1,0,0,0,.29,0,1.23,1.23,0,0,0,.26-.12.58.58,0,0,0,.19-.19A.51.51,0,0,0,13,13.9a.47.47,0,0,0-.17-.38,1.46,1.46,0,0,0-.41-.23l-.54-.18a1.94,1.94,0,0,1-.53-.23,1.1,1.1,0,0,1-.58-1,1.17,1.17,0,0,1,.15-.61,1.34,1.34,0,0,1,.39-.43,1.74,1.74,0,0,1,.55-.26,2.74,2.74,0,0,1,.64-.08,2.46,2.46,0,0,1,.72.11,1.56,1.56,0,0,1,.62.36l-.61.63a.7.7,0,0,0-.35-.28,1.23,1.23,0,0,0-.47-.09,1.35,1.35,0,0,0-.28,0,.64.64,0,0,0-.24.1.62.62,0,0,0-.18.18.6.6,0,0,0-.06.27.42.42,0,0,0,.16.36,1.74,1.74,0,0,0,.41.21,5,5,0,0,0,.54.17,2.3,2.3,0,0,1,.53.23,1.21,1.21,0,0,1,.41.4,1.14,1.14,0,0,1,.17.65A1.44,1.44,0,0,1,13.68,14.45Zm4.2.62a2.43,2.43,0,0,1-1,.19,2.73,2.73,0,0,1-1-.17,2.22,2.22,0,0,1-.78-.48,2.17,2.17,0,0,1-.51-.75,2.54,2.54,0,0,1-.19-1,2.66,2.66,0,0,1,.19-1,2.12,2.12,0,0,1,.51-.76,2.25,2.25,0,0,1,.78-.49,3,3,0,0,1,1-.17,2.3,2.3,0,0,1,.88.17,1.87,1.87,0,0,1,.76.55l-.65.47a1.43,1.43,0,0,0-.5-.37,1.63,1.63,0,0,0-.48-.09,1.69,1.69,0,0,0-.66.13,1.41,1.41,0,0,0-.51.35,1.65,1.65,0,0,0-.33.52,1.85,1.85,0,0,0-.11.63,2.11,2.11,0,0,0,.11.68,1.63,1.63,0,0,0,.33.54,1.54,1.54,0,0,0,.51.35,1.53,1.53,0,0,0,.66.13,1.34,1.34,0,0,0,.55-.13A1.52,1.52,0,0,0,18,14l.69.48A1.88,1.88,0,0,1,17.88,15.07Zm3.77.2a2.4,2.4,0,1,1,2.47-2.4A2.43,2.43,0,0,1,21.65,15.27Zm5.1-.12H26l-1.84-4.56h1L26.43,14l1.31-3.44h.9Zm5.62,0H29.15V10.59h3.1v.73H30v1.12h2.15v.74H30v1.23h2.39Zm3.35,0-1.09-1.94H34v1.94h-.83V10.59h1.63a3.49,3.49,0,0,1,.65.06,1.63,1.63,0,0,1,.56.21,1.15,1.15,0,0,1,.39.4,1.2,1.2,0,0,1,.15.63,1.23,1.23,0,0,1-.29.83,1.17,1.17,0,0,1-.8.41l1.24,2Z"/></svg>