<svg id="fe8f9118-40ac-4d02-a3d2-917d2cdfa5b5" data-name="Layer 1" xmlns="http://www.w3.org/2000/svg" viewBox="0 0 12.03 12.03"><title>icon</title><path d="M6,0C4.38,0,4.18,0,3.53,0A4.44,4.44,0,0,0,2.07.32,2.94,2.94,0,0,0,1,1,2.94,2.94,0,0,0,.32,2.07,4.44,4.44,0,0,0,0,3.53C0,4.18,0,4.38,0,6S0,7.85,0,8.49A4.33,4.33,0,0,0,.32,10,2.89,2.89,0,0,0,1,11a2.94,2.94,0,0,0,1.06.69A4.44,4.44,0,0,0,3.53,12c.65,0,.85,0,2.48,0s1.84,0,2.48,0A4.33,4.33,0,0,0,10,11.71,3,3,0,0,0,11.71,10,4.33,4.33,0,0,0,12,8.49c0-.64,0-.84,0-2.48s0-1.83,0-2.48a4.44,4.44,0,0,0-.28-1.46A2.94,2.94,0,0,0,11,1,2.89,2.89,0,0,0,10,.32,4.33,4.33,0,0,0,8.49,0C7.85,0,7.65,0,6,0ZM6,1.08c1.61,0,1.8,0,2.44,0a3.17,3.17,0,0,1,1.11.21,1.88,1.88,0,0,1,.69.45,1.88,1.88,0,0,1,.45.69,3.17,3.17,0,0,1,.21,1.11c0,.64,0,.83,0,2.43s0,1.8,0,2.44a3.17,3.17,0,0,1-.21,1.11A2,2,0,0,1,9.56,10.7a3.17,3.17,0,0,1-1.11.21c-.64,0-.83,0-2.44,0s-1.79,0-2.43,0a3.17,3.17,0,0,1-1.11-.21,1.88,1.88,0,0,1-.69-.45,1.88,1.88,0,0,1-.45-.69,3.17,3.17,0,0,1-.21-1.11c0-.64,0-.83,0-2.44s0-1.79,0-2.43a3.17,3.17,0,0,1,.21-1.11,1.88,1.88,0,0,1,.45-.69,1.88,1.88,0,0,1,.69-.45,3.17,3.17,0,0,1,1.11-.21c.64,0,.83,0,2.43,0"/><path d="M6,8A2,2,0,1,1,8,6,2,2,0,0,1,6,8ZM6,2.93A3.09,3.09,0,1,0,9.1,6,3.08,3.08,0,0,0,6,2.93Z"/><path d="M10,2.8a.73.73,0,1,1-.72-.72A.73.73,0,0,1,10,2.8Z"/></svg>