<svg id="bd99e806-1e23-42e3-a342-93edaa734b6b" data-name="Layer 1" xmlns="http://www.w3.org/2000/svg" viewBox="0 0 63.97 71.9"><title>icon</title><path d="M60.71,15.6,35.27.9a6.45,6.45,0,0,0-6.56,0L3.26,15.6A6.6,6.6,0,0,0,0,21.24V50.65a6.38,6.38,0,0,0,3.27,5.64L28.74,71A6.73,6.73,0,0,0,32,71.9a6,6,0,0,0,3.27-.9L60.71,56.29A6.6,6.6,0,0,0,64,50.65V21.24A6.6,6.6,0,0,0,60.71,15.6Zm.76,35.05a4.12,4.12,0,0,1-2,3.48L34,68.86a3.83,3.83,0,0,1-4,0L4.5,54.11a3.94,3.94,0,0,1-2-3.46V21.24a4.15,4.15,0,0,1,2-3.48L30,3.05a4,4,0,0,1,4,0l25.44,14.7a4.13,4.13,0,0,1,2,3.48Z"/><polygon points="28.53 38.89 22.13 32.49 18.38 36.24 28.53 46.39 45.59 29.33 41.84 25.58 28.53 38.89"/></svg>