<svg id="b6bd1da4-2bfd-46c6-ac0d-d9167b4997b8" data-name="Layer 1" xmlns="http://www.w3.org/2000/svg" viewBox="0 0 18.7 16.88"><title>icon</title><path d="M6.62,14.54A1.17,1.17,0,1,0,7.8,15.71,1.17,1.17,0,0,0,6.62,14.54Z"/><path d="M15.71,14.54a1.17,1.17,0,1,0,1.17,1.17A1.17,1.17,0,0,0,15.71,14.54Z"/><path d="M18.57,3A.7.7,0,0,0,18,2.73H4.34L4,1.73A2.53,2.53,0,0,0,1.63,0H.72A.72.72,0,0,0,0,.72H0a.72.72,0,0,0,.72.72h.91a1.09,1.09,0,0,1,1,.73l2.83,9.28a2.54,2.54,0,0,0,2.43,1.8h7.33a.72.72,0,0,0,.72-.72h0a.72.72,0,0,0-.72-.72H7.92a1.1,1.1,0,0,1-1-.78L6.43,9.61h9.51a.72.72,0,0,0,.67-.46l2-5.45A.68.68,0,0,0,18.57,3Zm-3.28,5.3H6.05L4.72,4H16.93Z"/></svg>