<svg id="b50bbab8-93bd-4dad-ac95-ef94fa2118a1" data-name="Layer 1" xmlns="http://www.w3.org/2000/svg" viewBox="0 0 15.37 15.39"><title>icon</title><path d="M15.16,14.06l-2.87-2.85A6.93,6.93,0,0,0,11.78,2,6.9,6.9,0,0,0,0,6.91,6.84,6.84,0,0,0,2,11.8a7,7,0,0,0,4.89,2,6.87,6.87,0,0,0,4.3-1.51l2.85,2.84a.74.74,0,0,0,.53.23.71.71,0,0,0,.54-.23A.8.8,0,0,0,15.16,14.06ZM12.29,6.91a4.51,4.51,0,0,1-1.35,3.55,6.23,6.23,0,0,1-4,1.83A5.25,5.25,0,0,1,3.12,10.7,5.43,5.43,0,0,1,1.54,6.91,5.28,5.28,0,0,1,3.12,3.12,5.41,5.41,0,0,1,6.91,1.54,5.27,5.27,0,0,1,10.7,3.12,5.38,5.38,0,0,1,12.29,6.91Z"/></svg>