<svg id="ac37626a-7814-4aac-9cdc-594b0d37e17c" data-name="Layer 1" xmlns="http://www.w3.org/2000/svg" viewBox="0 0 136.99 130.6"><title>icon</title><path d="M70.69,77a5.78,5.78,0,0,0,1.85,1.32,8.44,8.44,0,0,0,3,.67L76,79a2.42,2.42,0,0,0,.39,0h1.11c.65,0,1.32,0,2,0s1.4,0,2.2-.11a7.77,7.77,0,0,0,4.5-1.31,8.69,8.69,0,0,0,2.9-3.29,9.39,9.39,0,0,0,1-4.26,7.83,7.83,0,0,0-1.2-4.21,1.4,1.4,0,0,0-.37-.58,3.84,3.84,0,0,0-.37-.45,6.37,6.37,0,0,1-1.07-2,4.55,4.55,0,0,1-.16-1.34.58.58,0,0,0,.08-.29,1.7,1.7,0,0,1,0-.28,7.48,7.48,0,0,0-.2-3.42,8.28,8.28,0,0,0-4.26-5.13,7.3,7.3,0,0,0-3.43-.83H73.3a4.33,4.33,0,0,0-1.17.44,3.48,3.48,0,0,0-1.27,1.27,8.83,8.83,0,0,0-1,2.59,18.66,18.66,0,0,0-.41,4.3V73.94a6.13,6.13,0,0,0,.31,1.48A4.5,4.5,0,0,0,70.69,77Zm11.37-9.15.49.35a1.91,1.91,0,0,1,.42.43c.13.2.26.39.36.58a2.24,2.24,0,0,1,.25.62,1.16,1.16,0,0,1,.06.53c0,.19,0,.38,0,.58a2.4,2.4,0,0,1-.65,1.6,2,2,0,0,1-1.57.74l-1,0-.74,0H77.87a4.56,4.56,0,0,1-1.05-.1,1.39,1.39,0,0,1-.8-.64,2.64,2.64,0,0,1-.45-1,7,7,0,0,1-.17-1.13,2.26,2.26,0,0,1,.23-1.17,2.53,2.53,0,0,1,.72-.92.61.61,0,0,0,.16-.13,2.38,2.38,0,0,1,.86-.45l.87-.18.64-.09.63,0h.91l.84.09A1.88,1.88,0,0,1,82.06,67.85ZM75.4,59a1.34,1.34,0,0,1,0-.56,1.43,1.43,0,0,1,.37-.78,1.65,1.65,0,0,1,.7-.41,1,1,0,0,1,.41-.08h.41a10.35,10.35,0,0,1,1.65.1,2.12,2.12,0,0,1,1.15.64,1.57,1.57,0,0,1,.43.86,3.38,3.38,0,0,1,0,.95,3,3,0,0,1-.19.92,1.59,1.59,0,0,1-.67.68,5.09,5.09,0,0,1-.78.41,3.42,3.42,0,0,1-.87.08c-.22,0-.46,0-.74,0a4.89,4.89,0,0,1-.78-.1,1.91,1.91,0,0,1-.68-.31,1.08,1.08,0,0,1-.39-.68,1.38,1.38,0,0,1,0-.57,4.12,4.12,0,0,0,0-.62A3,3,0,0,0,75.4,59ZM97.5,83.37A2.63,2.63,0,0,0,96,82.05a2.56,2.56,0,0,0-2,.17,35.17,35.17,0,0,1-4.49,1.91,25.14,25.14,0,0,1-4,1,24.15,24.15,0,0,1-3.74.3,35,35,0,0,1-3.67-.2C69.75,84.32,63.89,78,59.3,71.65l0-.06a2.22,2.22,0,0,1-.18-1.06A2.06,2.06,0,0,1,60,69.09v0a9.39,9.39,0,0,0,2.46-3,10,10,0,0,0,1-3.55,10.2,10.2,0,0,0-.29-3.64,10.09,10.09,0,0,0-1.52-3.31A9.62,9.62,0,0,0,59,53a9.3,9.3,0,0,0-3.7-1.38,25.19,25.19,0,0,0-3.47-.24c-1.17,0-2.34,0-3.52.08l0,0a5,5,0,0,0-2.79.62,4.48,4.48,0,0,0-1,.76A4.61,4.61,0,0,0,43.69,54a7.29,7.29,0,0,0-.64,1.77,9.94,9.94,0,0,0-.25,2.38V59a3.57,3.57,0,0,1,0,.62V76.44a2.72,2.72,0,0,0,.84,2,2.81,2.81,0,0,0,2,.82,2.66,2.66,0,0,0,2-.82,2.76,2.76,0,0,0,.8-2V75a6.84,6.84,0,0,1,.33-2.42A1.74,1.74,0,0,1,50,71.47a3.33,3.33,0,0,1,2,.12,4.59,4.59,0,0,1,1.46,1.07,8.79,8.79,0,0,1,.6.74l.25.37c3.19,4.72,7.06,9.31,11.89,12.42a25,25,0,0,0,11.28,4.33,39.45,39.45,0,0,0,4.24.24,26.21,26.21,0,0,0,4.85-.41A34.36,34.36,0,0,0,96.35,87a2.66,2.66,0,0,0,1.15-3.59Zm-46.39-19a2.14,2.14,0,0,1-1.46-1.09,3.65,3.65,0,0,1-.39-1.3V60.08a2.26,2.26,0,0,1,.1-.57,1.83,1.83,0,0,1,.43-.74,2.61,2.61,0,0,1,1-.64,4.59,4.59,0,0,1,1.72-.27h.87a2.78,2.78,0,0,1,2.34,1,3.61,3.61,0,0,1,0,4.48,2.78,2.78,0,0,1-2.34,1ZM34.71,39a2.59,2.59,0,0,1,1.66-1,.14.14,0,0,1,.17.12l.05.47c0,.08,0,.13-.11.14a2,2,0,0,0-1.19.69,1.93,1.93,0,0,0,3,2.4,1.92,1.92,0,0,0,.41-1.3c0-.09,0-.13.11-.14l.47-.06c.08,0,.15.06.16.13a2.61,2.61,0,0,1-.57,1.86A2.67,2.67,0,1,1,34.71,39Zm9.78-8.63a.15.15,0,0,1,0-.19L45,30a.14.14,0,0,1,.19.05l1.6,2.68a1.24,1.24,0,1,0,2.14-1.25l-1.61-2.7a.14.14,0,0,1,.05-.19l.42-.26a.16.16,0,0,1,.2,0l1.63,2.73a2,2,0,0,1-3.47,2.07Zm14.8-1.79.13-.34a.17.17,0,0,1,.24-.1,1.66,1.66,0,0,0,1.26.27c.5-.1.77-.46.69-.84s-.52-.64-1.3-.79-1.46-.45-1.62-1.29A1.45,1.45,0,0,1,60,23.86a2.48,2.48,0,0,1,1.43.17.16.16,0,0,1,.09.24l-.12.31a.18.18,0,0,1-.24.12,1.76,1.76,0,0,0-1.06-.17c-.61.12-.75.55-.7.82s.46.6,1.11.73c.91.18,1.71.44,1.88,1.33a1.5,1.5,0,0,1-1.35,1.69,2.35,2.35,0,0,1-1.68-.27C59.3,28.79,59.23,28.75,59.29,28.61Zm14.32-4.45L72.41,24a.14.14,0,0,1-.12-.16l0-.41a.15.15,0,0,1,.16-.13l3.16.42a.15.15,0,0,1,.13.16l-.06.42a.15.15,0,0,1-.16.12l-1.2-.16-.57,4.32a.15.15,0,0,1-.16.12l-.49-.07a.14.14,0,0,1-.12-.15ZM88.43,28a2.67,2.67,0,1,1-3.61,1.14A2.67,2.67,0,0,1,88.43,28Zm-2.14,4.1a2,2,0,0,0,2.61-.83,1.93,1.93,0,1,0-3.42-1.79A2,2,0,0,0,86.29,32.08ZM100,36.89a.17.17,0,0,1,.17,0l.08.09a.16.16,0,0,1,0,.15L98.41,40.8l0,0,3.89-1.29a.13.13,0,0,1,.14,0l.08.09a.15.15,0,0,1,0,.17l-3.2,3.94a.13.13,0,0,1-.22,0l-.31-.36a.17.17,0,0,1,0-.18L101,40.67h0l-3.46,1.2a.16.16,0,0,1-.15,0l-.08-.1a.12.12,0,0,1,0-.15L99,38.33l0,0-2.87,1.75a.14.14,0,0,1-.16,0l-.32-.37a.14.14,0,0,1,0-.22ZM30.94,75.64a2.67,2.67,0,0,1-.25,1.91.15.15,0,0,1-.21.06l-.41-.25c-.08,0-.09-.1,0-.19a1.91,1.91,0,0,0,.2-1.34,1.93,1.93,0,0,0-3.75.88,2.76,2.76,0,0,0,.5,1l.81-.19-.16-.71a.13.13,0,0,1,.1-.17l.41-.1a.14.14,0,0,1,.17.11L28.62,78a.13.13,0,0,1-.1.16l-1.75.41a.15.15,0,0,1-.13,0,3.73,3.73,0,0,1-.9-1.68,2.67,2.67,0,1,1,5.2-1.22Zm4,10.47a.14.14,0,0,1,.19,0l.26.41a.14.14,0,0,1,0,.19l-3.69,2.33,1.07,1.71a.14.14,0,0,1,0,.19l-.35.22a.14.14,0,0,1-.19,0l-1.41-2.23a.14.14,0,0,1,0-.2Zm4,12.61,4.93-2.43a.19.19,0,0,1,.15,0l0,0a.17.17,0,0,1,0,.14l-1.4,5.31a.13.13,0,0,1-.22.07l-.37-.3a.16.16,0,0,1-.06-.19l.29-1.08-1.88-1.54-1,.51a.19.19,0,0,1-.2,0L38.92,99A.13.13,0,0,1,38.94,98.72Zm3.6.91.58-2.16,0,0-2,1Zm9.35,6.63.29-.22a.17.17,0,0,1,.26,0,1.63,1.63,0,0,0,.93.89.75.75,0,0,0,1-.36c.15-.42-.11-.81-.7-1.35s-1-1.14-.72-2a1.45,1.45,0,0,1,2-.72,2.48,2.48,0,0,1,1.14.89.18.18,0,0,1,0,.25l-.27.2a.18.18,0,0,1-.27,0,1.71,1.71,0,0,0-.81-.7.74.74,0,0,0-1,.34c-.14.39.07.75.56,1.2.69.63,1.24,1.26.92,2.11a1.5,1.5,0,0,1-2,.74,2.38,2.38,0,0,1-1.29-1.1C51.81,106.42,51.77,106.35,51.89,106.26Zm13.24,3.14.2-.3a.18.18,0,0,1,.26,0,1.6,1.6,0,0,0,1.16.56.75.75,0,0,0,.87-.66c0-.44-.36-.74-1.08-1.07s-1.32-.76-1.29-1.62A1.44,1.44,0,0,1,66.92,105a2.54,2.54,0,0,1,1.36.49.18.18,0,0,1,0,.25l-.19.27a.18.18,0,0,1-.27.07,1.72,1.72,0,0,0-1-.41c-.63,0-.86.36-.87.64s.3.69.91,1c.85.38,1.57.81,1.53,1.72a1.5,1.5,0,0,1-1.7,1.33,2.33,2.33,0,0,1-1.57-.64C65.1,109.58,65,109.52,65.13,109.4Zm12.15-5.08a.13.13,0,0,1,.07-.21l.47-.16A.18.18,0,0,1,78,104l1.9,3h0l.08-3.7a.14.14,0,0,1,.09-.12l.13,0a.11.11,0,0,1,.14,0l2.24,3h0l-.2-3.52a.17.17,0,0,1,.09-.14l.48-.15a.13.13,0,0,1,.18.13l.19,5.18a.14.14,0,0,1-.09.14l-.12,0a.12.12,0,0,1-.14,0l-2.38-3.11h0l-.09,3.91a.13.13,0,0,1-.1.11l-.11,0a.13.13,0,0,1-.16-.06Zm16.08-2.08-1.3-5.33a.16.16,0,0,1,0-.14l0,0a.16.16,0,0,1,.15,0l4.87,2.52a.13.13,0,0,1,0,.23l-.37.29a.17.17,0,0,1-.2,0l-1-.51-1.9,1.5.27,1.08a.19.19,0,0,1-.07.19l-.36.29A.13.13,0,0,1,93.36,102.24ZM95,98.92l-2-1,0,0,.55,2.15Zm5.08-10.23a.14.14,0,0,1,0-.19l1.08-1.71a1.61,1.61,0,0,1,2.21-.51A1.64,1.64,0,0,1,104,88l2.14.15a.14.14,0,0,1,.11.22l-.3.47a.15.15,0,0,1-.16.08l-2.16-.22-.6,1,1.6,1a.15.15,0,0,1,0,.2l-.26.4a.14.14,0,0,1-.19,0Zm3.14-.49a.92.92,0,0,0-.29-1.26.9.9,0,0,0-1.23.29L101,88.34l1.52,1Zm2.44-11.33a.14.14,0,0,1-.1-.17l.68-2.89a.15.15,0,0,1,.17-.1l.41.1a.14.14,0,0,1,.1.17l-.54,2.28,1.47.35.46-1.93a.15.15,0,0,1,.17-.1l.4.09a.15.15,0,0,1,.11.17l-.46,1.93,1.55.37.54-2.28a.15.15,0,0,1,.17-.11l.4.1a.14.14,0,0,1,.1.17l-.68,2.88a.14.14,0,0,1-.17.11ZM31.23,56.79l-1.54-.19L29,55.24a.36.36,0,0,0-.65,0l-.67,1.4-1.47.19a.36.36,0,0,0-.2.63l1.12,1.06L26.9,60a.36.36,0,0,0,.53.39l1.36-.74,1.31.7a.37.37,0,0,0,.54-.39l-.28-1.51,1.08-1A.37.37,0,0,0,31.23,56.79Zm79.73,0-1.54-.19-.65-1.36a.36.36,0,0,0-.65,0l-.67,1.4-1.47.19a.37.37,0,0,0-.2.63l1.12,1.06L106.63,60a.36.36,0,0,0,.53.39l1.36-.74,1.32.7a.36.36,0,0,0,.53-.39l-.28-1.51,1.08-1A.37.37,0,0,0,111,56.79ZM68.13,130.6a7.16,7.16,0,0,1-2-.3L21.39,117a5.15,5.15,0,0,1-3.55-3.84L.12,31.26a5.1,5.1,0,0,1,3.14-5.87l63.4-25a6.13,6.13,0,0,1,4.72.09l62.52,27.2a5.12,5.12,0,0,1,2.94,5.91l-19.65,81.69a5.14,5.14,0,0,1-3.71,3.78L69.94,130.37A7.36,7.36,0,0,1,68.13,130.6ZM68.92,2.06a4,4,0,0,0-1.51.29L4,27.3a3.08,3.08,0,0,0-1.88,3.52l17.72,81.87A3.07,3.07,0,0,0,22,115l44.69,13.34a5.24,5.24,0,0,0,2.75,0L113,117.11a3.1,3.1,0,0,0,2.23-2.27l19.65-81.69a3.07,3.07,0,0,0-1.76-3.55L70.56,2.4A4.09,4.09,0,0,0,68.92,2.06Z"/></svg>